<mxfile host="Electron" agent="Mozilla/5.0 (X11; Linux x86_64) AppleWebKit/537.36 (KHTML, like Gecko) draw.io/24.7.8 Chrome/128.0.6613.36 Electron/32.0.1 Safari/537.36" version="24.7.8">
  <diagram name="Страница — 1" id="Zvr2eW7H0rXLNG6UFAMz">
    <mxGraphModel dx="1472" dy="591" grid="1" gridSize="10" guides="1" tooltips="1" connect="1" arrows="1" fold="1" page="1" pageScale="1" pageWidth="827" pageHeight="1169" math="0" shadow="0">
      <root>
        <mxCell id="0" />
        <mxCell id="1" parent="0" />
        <UserObject label="&lt;div style=&quot;font-size: 13px;&quot;&gt;&lt;span style=&quot;background-color: initial; font-size: 13px;&quot;&gt;&lt;font style=&quot;font-size: 13px;&quot; color=&quot;#990488&quot;&gt;SELECT&lt;/font&gt;&amp;nbsp;&lt;font style=&quot;font-size: 13px;&quot; color=&quot;#425dc0&quot;&gt;*&lt;/font&gt;&lt;font style=&quot;font-size: 13px;&quot; color=&quot;#990488&quot;&gt;&amp;nbsp;FROM&lt;/font&gt;&lt;/span&gt;&lt;/div&gt;&lt;div style=&quot;font-size: 13px;&quot;&gt;&lt;span style=&quot;background-color: initial; font-size: 13px;&quot;&gt;&amp;nbsp;&lt;/span&gt;&lt;/div&gt;&lt;div style=&quot;font-size: 13px;&quot;&gt;&lt;span style=&quot;background-color: initial; font-size: 13px;&quot;&gt;&lt;font style=&quot;font-size: 13px;&quot; color=&quot;#425dc0&quot;&gt;&lt;br style=&quot;font-size: 13px;&quot;&gt;&lt;/font&gt;&lt;/span&gt;&lt;/div&gt;&lt;div style=&quot;font-size: 13px;&quot;&gt;&lt;span style=&quot;background-color: initial; font-size: 13px;&quot;&gt;&lt;font style=&quot;font-size: 13px;&quot; color=&quot;#425dc0&quot;&gt;&lt;br style=&quot;font-size: 13px;&quot;&gt;&lt;/font&gt;&lt;/span&gt;&lt;/div&gt;&lt;div style=&quot;font-size: 13px;&quot;&gt;&lt;span style=&quot;background-color: initial; font-size: 13px;&quot;&gt;&lt;font style=&quot;font-size: 13px;&quot; color=&quot;#425dc0&quot;&gt;&lt;br style=&quot;font-size: 13px;&quot;&gt;&lt;/font&gt;&lt;/span&gt;&lt;/div&gt;&lt;div style=&quot;font-size: 13px;&quot;&gt;&lt;span style=&quot;background-color: initial; font-size: 13px;&quot;&gt;&lt;font style=&quot;font-size: 13px;&quot; color=&quot;#425dc0&quot;&gt;tbl1 t1&lt;/font&gt;&lt;font style=&quot;font-size: 13px;&quot; color=&quot;#990488&quot;&gt;&amp;nbsp;&lt;/font&gt;&lt;/span&gt;&lt;/div&gt;&lt;div style=&quot;font-size: 13px;&quot;&gt;&lt;span style=&quot;background-color: initial; color: rgb(153, 4, 136); font-size: 13px;&quot;&gt;&lt;br style=&quot;font-size: 13px;&quot;&gt;&lt;/span&gt;&lt;/div&gt;&lt;div style=&quot;font-size: 13px;&quot;&gt;&lt;span style=&quot;background-color: initial; color: rgb(153, 4, 136); font-size: 13px;&quot;&gt;JOIN&amp;nbsp;&lt;/span&gt;&lt;/div&gt;&lt;div style=&quot;font-size: 13px;&quot;&gt;&lt;span style=&quot;background-color: initial; color: rgb(66, 93, 192); font-size: 13px;&quot;&gt;&lt;br style=&quot;font-size: 13px;&quot;&gt;&lt;/span&gt;&lt;/div&gt;&lt;div style=&quot;font-size: 13px;&quot;&gt;&lt;span style=&quot;background-color: initial; color: rgb(66, 93, 192); font-size: 13px;&quot;&gt;&lt;br&gt;&lt;/span&gt;&lt;/div&gt;&lt;div style=&quot;font-size: 13px;&quot;&gt;&lt;span style=&quot;background-color: initial; color: rgb(66, 93, 192); font-size: 13px;&quot;&gt;tbl2 t2&amp;nbsp;&amp;nbsp;&lt;/span&gt;&lt;font style=&quot;background-color: initial; font-size: 13px;&quot; color=&quot;#990488&quot;&gt;USING&lt;/font&gt;&lt;span style=&quot;background-color: initial; color: rgb(66, 93, 192); font-size: 13px;&quot;&gt;&amp;nbsp;&lt;/span&gt;&lt;font style=&quot;background-color: initial; color: rgb(51, 51, 51); font-size: 13px;&quot; color=&quot;#333333&quot;&gt;(&lt;/font&gt;&lt;font style=&quot;background-color: initial; font-size: 13px;&quot; color=&quot;#425dc0&quot;&gt;id&lt;/font&gt;&lt;font style=&quot;background-color: initial; color: rgb(51, 51, 51); font-size: 13px;&quot; color=&quot;#333333&quot;&gt;)&lt;/font&gt;&lt;br style=&quot;font-size: 13px;&quot;&gt;&lt;/div&gt;&lt;div style=&quot;color: rgb(51, 51, 51); font-size: 13px;&quot;&gt;&lt;font style=&quot;font-size: 13px;&quot; color=&quot;#333333&quot;&gt;&lt;br style=&quot;font-size: 13px;&quot;&gt;&lt;/font&gt;&lt;/div&gt;&lt;div style=&quot;font-size: 13px;&quot;&gt;&lt;br style=&quot;font-size: 13px;&quot;&gt;&lt;/div&gt;&lt;div style=&quot;font-size: 13px;&quot;&gt;&lt;font style=&quot;font-size: 13px;&quot; color=&quot;#990488&quot;&gt;LEFT OUTER JOIN&lt;/font&gt;&lt;/div&gt;&lt;div style=&quot;font-size: 13px;&quot;&gt;&lt;font style=&quot;font-size: 13px;&quot; color=&quot;#990488&quot;&gt;&lt;br&gt;&lt;/font&gt;&lt;/div&gt;&lt;div style=&quot;font-size: 13px;&quot;&gt;&lt;font style=&quot;font-size: 13px;&quot; color=&quot;#425dc0&quot;&gt;&lt;br style=&quot;font-size: 13px;&quot;&gt;&lt;/font&gt;&lt;/div&gt;&lt;div style=&quot;font-size: 13px;&quot;&gt;&lt;font style=&quot;font-size: 13px;&quot; color=&quot;#425dc0&quot;&gt;generate_series&lt;/font&gt;&lt;font style=&quot;font-size: 13px;&quot; color=&quot;#545454&quot;&gt;(&lt;/font&gt;&lt;font style=&quot;font-size: 13px;&quot; color=&quot;#b36844&quot;&gt;1&lt;/font&gt;&lt;font style=&quot;font-size: 13px;&quot; color=&quot;#313131&quot;&gt;,&lt;/font&gt;&lt;font style=&quot;font-size: 13px;&quot; color=&quot;#990488&quot;&gt; &lt;/font&gt;&lt;font style=&quot;font-size: 13px;&quot; color=&quot;#b36844&quot;&gt;100&lt;/font&gt;&lt;font style=&quot;font-size: 13px;&quot; color=&quot;#545454&quot;&gt;)&lt;/font&gt;&lt;font style=&quot;font-size: 13px;&quot; color=&quot;#990488&quot;&gt; &lt;/font&gt;&lt;font style=&quot;font-size: 13px;&quot; color=&quot;#425dc0&quot;&gt;g&lt;/font&gt;&lt;font style=&quot;background-color: initial; color: rgb(51, 51, 51); font-size: 13px;&quot; color=&quot;#333333&quot;&gt;(&lt;/font&gt;&lt;font style=&quot;background-color: initial; font-size: 13px;&quot; color=&quot;#425dc0&quot;&gt;id&lt;/font&gt;&lt;font style=&quot;background-color: initial; color: rgb(51, 51, 51); font-size: 13px;&quot; color=&quot;#333333&quot;&gt;)&amp;nbsp;&amp;nbsp;&lt;/font&gt;&lt;font style=&quot;background-color: initial;&quot; color=&quot;#990488&quot;&gt;USING&amp;nbsp;&lt;/font&gt;&lt;font style=&quot;background-color: initial; color: rgb(51, 51, 51);&quot; color=&quot;#333333&quot;&gt;(&lt;/font&gt;&lt;font style=&quot;background-color: initial;&quot; color=&quot;#425dc0&quot;&gt;id&lt;/font&gt;&lt;font style=&quot;background-color: initial; color: rgb(51, 51, 51);&quot; color=&quot;#333333&quot;&gt;),&lt;/font&gt;&lt;/div&gt;&lt;div style=&quot;color: rgb(51, 51, 51); font-size: 13px;&quot;&gt;&lt;br&gt;&lt;/div&gt;&lt;div style=&quot;color: rgb(51, 51, 51); font-size: 13px;&quot;&gt;&lt;br&gt;&lt;/div&gt;&lt;div style=&quot;color: rgb(51, 51, 51); font-size: 13px;&quot;&gt;&lt;br&gt;&lt;/div&gt;&lt;font style=&quot;font-size: 13px;&quot; color=&quot;#333333&quot;&gt;(&lt;/font&gt;&lt;div&gt;&lt;font style=&quot;background-color: initial; font-size: 13px;&quot; color=&quot;#990488&quot;&gt;&lt;br&gt;&lt;/font&gt;&lt;/div&gt;&lt;div&gt;&lt;font style=&quot;background-color: initial; font-size: 13px;&quot; color=&quot;#990488&quot;&gt;&lt;br&gt;&lt;/font&gt;&lt;/div&gt;&lt;div&gt;&lt;font style=&quot;background-color: initial; font-size: 13px;&quot; color=&quot;#990488&quot;&gt;&amp;nbsp; SELECT&lt;/font&gt;&lt;span style=&quot;background-color: initial; font-size: 13px;&quot;&gt; &lt;/span&gt;&lt;font style=&quot;background-color: initial; font-size: 13px;&quot; color=&quot;#990488&quot;&gt;MAX&lt;/font&gt;&lt;font style=&quot;background-color: initial; font-size: 13px;&quot; color=&quot;#333333&quot;&gt;(&lt;/font&gt;&lt;font style=&quot;background-color: initial; font-size: 13px;&quot; color=&quot;#425dc0&quot;&gt;id&lt;/font&gt;&lt;font style=&quot;background-color: initial; font-size: 13px;&quot; color=&quot;#333333&quot;&gt;)&lt;/font&gt;&lt;span style=&quot;background-color: initial; font-size: 13px;&quot;&gt;&amp;nbsp;&lt;/span&gt;&lt;font style=&quot;background-color: initial; font-size: 13px;&quot; color=&quot;#990488&quot;&gt;FROM&lt;/font&gt;&lt;span style=&quot;background-color: initial; font-size: 13px;&quot;&gt; &lt;/span&gt;&lt;font style=&quot;background-color: initial; font-size: 13px;&quot; color=&quot;#425dc0&quot;&gt;tbl3&lt;/font&gt;&lt;span style=&quot;background-color: initial; font-size: 13px;&quot;&gt;&amp;nbsp;&lt;/span&gt;&lt;font style=&quot;background-color: initial; font-size: 13px;&quot; color=&quot;#990488&quot;&gt;GROUP BY&lt;/font&gt;&lt;font style=&quot;background-color: initial; font-size: 13px;&quot; color=&quot;#425dc0&quot;&gt; value&lt;/font&gt;&lt;/div&gt;&lt;div&gt;&lt;span style=&quot;background-color: initial; color: rgb(51, 51, 51);&quot;&gt;)&lt;/span&gt;&lt;br&gt;&lt;/div&gt;" link="explain select t1.value, max(t1.id) from tbl t1&#xa;join&#xa;(select id from tbl where value = 1 or value = 2) t2&#xa;using (id)&#xa;group by t1.value&#xa;having count(t1.id) &gt; 100;" id="W669uPvKT1c0R3ufBaIu-1">
          <mxCell style="text;html=1;align=left;verticalAlign=middle;whiteSpace=wrap;rounded=0;fontFamily=Courier New;shadow=0;horizontal=1;spacing=2;fontSize=13;" parent="1" vertex="1">
            <mxGeometry x="249" y="149" width="391" height="407" as="geometry" />
          </mxCell>
        </UserObject>
        <mxCell id="gRIM112ALjNljpeR_7gf-1" value="" style="rounded=1;whiteSpace=wrap;html=1;fillColor=none;align=left;verticalAlign=top;arcSize=13;strokeColor=#006600;" parent="1" vertex="1">
          <mxGeometry x="244" y="230" width="74" height="27" as="geometry" />
        </mxCell>
        <mxCell id="gRIM112ALjNljpeR_7gf-2" value="RTE_RELATION" style="text;html=1;align=center;verticalAlign=middle;whiteSpace=wrap;rounded=0;fontSize=10;fontStyle=1;fontColor=#006600;" parent="1" vertex="1">
          <mxGeometry x="235.5" y="205" width="94" height="30" as="geometry" />
        </mxCell>
        <mxCell id="gRIM112ALjNljpeR_7gf-3" value="" style="rounded=1;whiteSpace=wrap;html=1;fillColor=none;align=left;verticalAlign=top;arcSize=13;strokeColor=#006600;" parent="1" vertex="1">
          <mxGeometry x="244" y="310" width="75" height="23" as="geometry" />
        </mxCell>
        <mxCell id="gRIM112ALjNljpeR_7gf-4" value="RTE_RELATION" style="text;html=1;align=center;verticalAlign=middle;whiteSpace=wrap;rounded=0;fontSize=10;fontStyle=1;fontColor=#006600;" parent="1" vertex="1">
          <mxGeometry x="236.5" y="281" width="94" height="30" as="geometry" />
        </mxCell>
        <mxCell id="gRIM112ALjNljpeR_7gf-5" value="" style="rounded=1;whiteSpace=wrap;html=1;fillColor=none;align=left;verticalAlign=top;arcSize=4;fontColor=#BF0707;labelBorderColor=#BF0707;strokeColor=#BF0707;" parent="1" vertex="1">
          <mxGeometry x="235.5" y="210" width="204.5" height="128" as="geometry" />
        </mxCell>
        <mxCell id="gRIM112ALjNljpeR_7gf-6" value="RTE_JOIN" style="text;html=1;align=center;verticalAlign=middle;whiteSpace=wrap;rounded=0;fontSize=10;fontStyle=1;fontColor=#BF0707;" parent="1" vertex="1">
          <mxGeometry x="224" y="185" width="94" height="30" as="geometry" />
        </mxCell>
        <mxCell id="gRIM112ALjNljpeR_7gf-7" value="" style="rounded=1;whiteSpace=wrap;html=1;fillColor=none;align=left;verticalAlign=top;arcSize=12;strokeColor=#006600;" parent="1" vertex="1">
          <mxGeometry x="243" y="399" width="264" height="29" as="geometry" />
        </mxCell>
        <mxCell id="gRIM112ALjNljpeR_7gf-8" value="RTE_FUNCTION" style="text;html=1;align=center;verticalAlign=middle;whiteSpace=wrap;rounded=0;fontSize=10;fontStyle=1;fontColor=#006600;" parent="1" vertex="1">
          <mxGeometry x="241" y="369" width="94" height="30" as="geometry" />
        </mxCell>
        <mxCell id="gRIM112ALjNljpeR_7gf-9" value="" style="rounded=1;whiteSpace=wrap;html=1;fillColor=none;align=left;verticalAlign=top;arcSize=2;strokeColor=#BF0707;" parent="1" vertex="1">
          <mxGeometry x="231.5" y="190" width="387.5" height="244" as="geometry" />
        </mxCell>
        <mxCell id="gRIM112ALjNljpeR_7gf-10" value="RTE_JOIN" style="text;html=1;align=center;verticalAlign=middle;whiteSpace=wrap;rounded=0;fontSize=10;fontStyle=1;fontColor=#BF0707;" parent="1" vertex="1">
          <mxGeometry x="223" y="164" width="94" height="30" as="geometry" />
        </mxCell>
        <mxCell id="gRIM112ALjNljpeR_7gf-11" value="" style="rounded=1;whiteSpace=wrap;html=1;fillColor=none;align=left;verticalAlign=top;arcSize=6;strokeColor=#006600;" parent="1" vertex="1">
          <mxGeometry x="231.5" y="452" width="388.5" height="102" as="geometry" />
        </mxCell>
        <mxCell id="gRIM112ALjNljpeR_7gf-12" value="RTE_SUBQUERY" style="text;html=1;align=center;verticalAlign=middle;whiteSpace=wrap;rounded=0;fontSize=10;fontStyle=1;fontColor=#006600;" parent="1" vertex="1">
          <mxGeometry x="246" y="428" width="94" height="30" as="geometry" />
        </mxCell>
        <mxCell id="LGMg5mJXS91rKiLZyFOQ-17" value="" style="rounded=1;whiteSpace=wrap;html=1;fillColor=none;align=left;verticalAlign=top;arcSize=13;strokeColor=#006600;" parent="1" vertex="1">
          <mxGeometry x="432" y="509" width="47" height="27" as="geometry" />
        </mxCell>
        <mxCell id="LGMg5mJXS91rKiLZyFOQ-18" value="RTE_RELATION" style="text;html=1;align=center;verticalAlign=middle;whiteSpace=wrap;rounded=0;fontSize=10;fontStyle=1;fontColor=#006600;" parent="1" vertex="1">
          <mxGeometry x="411" y="487" width="94" height="30" as="geometry" />
        </mxCell>
        <mxCell id="LGMg5mJXS91rKiLZyFOQ-34" value="" style="rounded=1;whiteSpace=wrap;html=1;fillColor=none;arcSize=8;dashed=1;" parent="1" vertex="1">
          <mxGeometry x="260" y="490" width="350" height="50" as="geometry" />
        </mxCell>
        <mxCell id="LGMg5mJXS91rKiLZyFOQ-36" value="" style="rounded=1;whiteSpace=wrap;html=1;fillColor=none;arcSize=2;dashed=1;" parent="1" vertex="1">
          <mxGeometry x="223" y="150" width="410" height="410" as="geometry" />
        </mxCell>
        <mxCell id="LGMg5mJXS91rKiLZyFOQ-37" value="Query" style="text;html=1;align=center;verticalAlign=middle;whiteSpace=wrap;rounded=0;" parent="1" vertex="1">
          <mxGeometry x="398" y="119" width="60" height="30" as="geometry" />
        </mxCell>
        <mxCell id="LGMg5mJXS91rKiLZyFOQ-38" value="Query" style="text;html=1;align=center;verticalAlign=middle;whiteSpace=wrap;rounded=0;" parent="1" vertex="1">
          <mxGeometry x="405" y="464" width="60" height="30" as="geometry" />
        </mxCell>
        <mxCell id="rmqxtMvbQiSp5vhj8vQF-1" value="&lt;b&gt;RangeTblEntry&lt;/b&gt;&lt;div&gt;&lt;br&gt;&lt;/div&gt;&lt;div&gt;&lt;font color=&quot;#006600&quot;&gt;RTE_RELATION&lt;/font&gt;&lt;/div&gt;&lt;div&gt;&lt;font color=&quot;#006600&quot;&gt;RTE_FUNCTION&lt;/font&gt;&lt;/div&gt;&lt;div&gt;&lt;font color=&quot;#006600&quot;&gt;RTE_SUBQUERY&lt;/font&gt;&lt;/div&gt;&lt;div&gt;&lt;font color=&quot;#bf0707&quot;&gt;RTE_JOIN&lt;/font&gt;&lt;/div&gt;" style="text;html=1;align=left;verticalAlign=top;whiteSpace=wrap;rounded=0;" parent="1" vertex="1">
          <mxGeometry x="660" y="295.5" width="120" height="116" as="geometry" />
        </mxCell>
        <mxCell id="rmqxtMvbQiSp5vhj8vQF-2" value="" style="shape=curlyBracket;whiteSpace=wrap;html=1;rounded=1;flipH=1;labelPosition=right;verticalLabelPosition=middle;align=left;verticalAlign=middle;" parent="1" vertex="1">
          <mxGeometry x="780" y="325.5" width="20" height="66" as="geometry" />
        </mxCell>
        <mxCell id="rmqxtMvbQiSp5vhj8vQF-3" value="RTEKind" style="text;html=1;align=center;verticalAlign=middle;whiteSpace=wrap;rounded=0;" parent="1" vertex="1">
          <mxGeometry x="800" y="343.5" width="60" height="30" as="geometry" />
        </mxCell>
      </root>
    </mxGraphModel>
  </diagram>
</mxfile>
